<?xml version="1.0" standalone="no"?>
<svg version="1.0" xmlns="http://www.w3.org/2000/svg"
 width="200pt" height="90pt" viewBox="0 0 600 600"
 preserveAspectRatio="xMidYMid meet">

<g transform="translate(0.000000,600.000000) scale(0.100000,-0.100000)"
fill="#000000" stroke="none">
<path d="M2320 4361 c-104 -7 -118 -17 -83 -60 15 -18 40 -25 131 -40 62 -10
117 -22 122 -27 9 -9 248 -797 264 -871 11 -49 29 -59 79 -44 31 10 163 15
515 18 l472 5 0 444 0 444 -523 0 c-288 0 -526 -2 -528 -5 -3 -2 4 -43 15 -90
l21 -85 422 0 423 0 0 -90 0 -90 -273 -2 -273 -3 21 -85 20 -85 253 -3 252 -2
0 -85 0 -85 -362 2 -361 3 -22 65 c-27 79 -313 750 -327 768 -11 13 -75 13
-258 3z"/>
<path d="M3438 3294 c-16 -8 -28 -19 -28 -24 0 -6 -31 -10 -70 -10 -63 0 -70
-2 -70 -20 0 -18 7 -20 60 -20 54 0 62 -3 69 -22 8 -22 6 -23 -51 -26 -46 -2
-59 -6 -56 -18 2 -11 27 -15 113 -18 61 -2 118 1 128 6 10 5 25 25 33 43 18
44 3 90 -37 110 -35 19 -56 18 -91 -1z"/>
<path d="M2840 3223 c-19 -9 -71 -19 -115 -22 -65 -5 -80 -9 -83 -23 -3 -16 5
-18 57 -18 61 0 67 -4 55 -34 -5 -13 -23 -16 -90 -16 -77 0 -84 -2 -84 -20 0
-18 7 -20 85 -20 83 0 86 -1 95 -26 6 -14 10 -27 10 -30 0 -2 -63 -4 -141 -4
-128 0 -140 -2 -137 -17 3 -16 22 -19 178 -24 96 -4 187 -10 202 -14 36 -10
89 9 123 45 38 40 46 120 16 167 -39 62 -110 85 -171 56z"/>
<path d="M430 2680 c0 -263 6 -315 50 -399 28 -56 86 -112 146 -142 42 -21 63
-24 149 -24 92 0 104 2 154 30 68 38 125 102 152 174 29 78 24 194 -13 266
-74 145 -242 216 -395 167 l-63 -20 0 99 0 99 -90 0 -90 0 0 -250z m422 -102
c53 -30 80 -77 80 -137 0 -82 -45 -140 -123 -161 -70 -19 -152 19 -183 84 -69
145 86 292 226 214z"/>
<path d="M5220 2642 l0 -289 30 -61 c58 -114 148 -173 278 -180 l82 -5 0 82 0
81 -42 0 c-48 0 -114 27 -140 56 -34 39 -48 91 -48 184 l0 90 85 0 85 0 0 85
0 85 -85 0 -85 0 0 80 0 80 -80 0 -80 0 0 -288z"/>
<path d="M1395 2756 c-136 -43 -220 -149 -232 -294 -11 -135 48 -246 166 -311
56 -30 76 -35 147 -39 106 -6 166 14 234 75 46 42 90 106 90 133 0 6 -35 10
-91 10 -75 0 -95 -3 -116 -20 -65 -51 -159 -43 -219 18 -19 19 -34 39 -34 44
0 4 108 8 240 8 l240 0 0 73 c0 80 -24 145 -75 205 -77 92 -233 135 -350 98z
m190 -182 l29 -19 -62 -3 c-35 -2 -88 -2 -120 0 l-57 3 35 23 c28 19 45 22 90
20 32 -3 67 -12 85 -24z"/>
<path d="M2115 2757 c-22 -8 -51 -19 -64 -26 -45 -25 -113 -95 -139 -146 l-27
-50 -3 -273 -3 -273 83 3 83 3 3 77 3 76 32 -16 c23 -12 58 -17 127 -17 81 0
103 4 145 25 71 34 139 108 165 177 30 80 25 196 -12 268 -32 62 -103 130
-166 158 -58 25 -171 32 -227 14z m174 -178 c45 -27 68 -56 79 -102 27 -102
-50 -197 -158 -197 -166 0 -221 203 -81 297 44 30 113 31 160 2z"/>
<path d="M2823 2756 c-86 -28 -160 -93 -204 -178 -34 -65 -38 -185 -9 -261 26
-69 94 -143 165 -177 72 -35 189 -40 268 -10 206 78 274 355 127 522 -58 67
-144 109 -233 114 -45 2 -88 -1 -114 -10z m185 -183 c118 -87 87 -256 -53
-294 -73 -20 -159 26 -189 103 -30 74 -2 150 71 195 47 30 128 28 171 -4z"/>
<path d="M3536 2754 c-165 -52 -256 -205 -226 -376 21 -114 97 -207 206 -248
78 -29 196 -25 264 9 61 31 117 86 146 144 l24 47 -96 0 c-80 0 -100 -3 -121
-20 -117 -92 -286 17 -259 165 9 46 58 101 103 116 47 15 118 6 154 -20 24
-18 42 -21 124 -21 l95 0 -20 40 c-55 108 -153 171 -273 176 -46 3 -89 -2
-121 -12z"/>
<path d="M4243 2756 c-94 -30 -189 -120 -218 -207 -27 -79 -17 -199 20 -267
32 -60 85 -111 143 -141 82 -42 208 -45 283 -7 27 13 29 13 29 -5 0 -17 8 -19
85 -19 l85 0 0 330 0 330 -85 0 c-77 0 -85 -2 -85 -19 0 -19 -1 -19 -55 0 -62
22 -141 24 -202 5z m185 -183 c123 -91 81 -271 -69 -298 -50 -9 -118 22 -155
70 -56 74 -27 195 57 239 45 22 130 17 167 -11z"/>
<path d="M4740 2440 l0 -330 84 0 85 0 3 188 c3 177 4 189 26 220 34 47 89 72
162 72 l60 0 0 85 0 85 -58 0 c-50 0 -97 -9 -178 -35 -19 -6 -21 -3 -17 19 l5
26 -86 0 -86 0 0 -330z"/>
</g>
</svg>
